<svg width="50" height="21" viewBox="0 0 50 21" fill="none" xmlns="http://www.w3.org/2000/svg">
<g clip-path="url(#clip0)">
<path d="M1.56298 15.3926L10.3306 0.206604L19.0982 15.3926H1.56298Z" stroke="#FA255E"/>
<path d="M22.6397 11.7182H24.1124L24.3207 12.6033H26.2025L24.7595 7.02478H22L20.557 12.6033H22.4388L22.6397 11.7182ZM23.4281 8.73552L23.7851 10.2975H22.9669L23.3314 8.73552H23.4281ZM30.5198 7.02478H26.1463V8.45288H27.4405V12.6033H29.2256V8.45288H30.5198V7.02478ZM32.5401 11.7182H34.0128L34.2211 12.6033H36.1029L34.6599 7.02478H31.9004L30.4574 12.6033H32.3393L32.5401 11.7182ZM33.3285 8.73552L33.6855 10.2975H32.8674L33.2318 8.73552H33.3285ZM40.3459 10.7438L41.3128 12.6033H39.3492L38.6202 10.9446H38.2335V12.6033H36.4483V7.02478H39.2599C40.5393 7.02478 41.1789 7.67685 41.1789 8.98098C41.1789 9.87354 40.9012 10.4611 40.3459 10.7438ZM38.6426 8.45288H38.2335V9.56858H38.6426C38.8607 9.56858 39.0169 9.54627 39.1112 9.50164C39.2103 9.45701 39.2599 9.35536 39.2599 9.19668V8.82478C39.2599 8.6661 39.2103 8.56445 39.1112 8.51982C39.0169 8.47519 38.8607 8.45288 38.6426 8.45288ZM43.7248 12.6033V7.02478H41.9397V12.6033H43.7248ZM46.1521 11.7182H47.6248L47.8331 12.6033H49.7149L48.2719 7.02478H45.5124L44.0694 12.6033H45.9512L46.1521 11.7182ZM46.9405 8.73552L47.2975 10.2975H46.4793L46.8438 8.73552H46.9405Z" fill="#FA255E"/>
<path d="M12.476 7.02478H8.10248V8.45288H9.39669V12.6033H11.1818V8.45288H12.476V7.02478Z" fill="#FA255E"/>
</g>
<defs>
<clipPath id="clip0">
<rect width="50" height="20.6612" fill="white"/>
</clipPath>
</defs>
</svg>
