<svg width="50" height="50" viewBox="0 0 50 50" fill="none" xmlns="http://www.w3.org/2000/svg">
<path d="M46.6216 41.2162H3.37838C2.84078 41.2162 2.3252 41.0026 1.94506 40.6225C1.56491 40.2424 1.35135 39.7268 1.35135 39.1892V10.8108C1.35135 10.2732 1.56491 9.75763 1.94506 9.37748C2.3252 8.99734 2.84078 8.78378 3.37838 8.78378H46.6216C47.1592 8.78378 47.6748 8.99734 48.055 9.37748C48.4351 9.75763 48.6487 10.2732 48.6487 10.8108V39.1892C48.6487 39.7268 48.4351 40.2424 48.055 40.6225C47.6748 41.0026 47.1592 41.2162 46.6216 41.2162ZM3.37838 10.1351C3.19918 10.1351 3.02732 10.2063 2.90061 10.333C2.77389 10.4597 2.7027 10.6316 2.7027 10.8108V39.1892C2.7027 39.3684 2.77389 39.5402 2.90061 39.667C3.02732 39.7937 3.19918 39.8649 3.37838 39.8649H46.6216C46.8008 39.8649 46.9727 39.7937 47.0994 39.667C47.2261 39.5402 47.2973 39.3684 47.2973 39.1892V10.8108C47.2973 10.6316 47.2261 10.4597 47.0994 10.333C46.9727 10.2063 46.8008 10.1351 46.6216 10.1351H3.37838Z" fill="white"/>
<path d="M41.2162 41.2162H8.78378C8.67252 41.2162 8.56298 41.1887 8.46488 41.1362C8.36678 41.0837 8.28317 41.0078 8.22147 40.9152C8.15977 40.8226 8.12188 40.7163 8.11118 40.6055C8.10048 40.4948 8.1173 40.3831 8.16013 40.2804L10.4128 34.875C10.4641 34.752 10.5506 34.647 10.6615 34.573C10.7723 34.4991 10.9026 34.4596 11.0358 34.4595H38.9642C39.0974 34.4596 39.2277 34.4991 39.3385 34.573C39.4493 34.647 39.5359 34.752 39.5871 34.875L41.8399 40.2804C41.8827 40.3831 41.8995 40.4948 41.8888 40.6055C41.8781 40.7163 41.8402 40.8226 41.7785 40.9152C41.7168 41.0078 41.6332 41.0837 41.5351 41.1362C41.437 41.1887 41.3275 41.2162 41.2162 41.2162V41.2162ZM9.7973 39.8649H40.2027L38.5135 35.8108H11.4865L9.7973 39.8649Z" fill="white"/>
<path d="M35.5682 26.5939H14.4318C13.2922 26.5939 12.1994 26.1413 11.3936 25.3355C10.5878 24.5297 10.1351 23.4368 10.1351 22.2973C10.1351 21.1578 10.5878 20.0649 11.3936 19.2591C12.1994 18.4534 13.2922 18.0007 14.4318 18.0007H35.5682C36.7078 18.0007 37.8006 18.4534 38.6064 19.2591C39.4122 20.0649 39.8649 21.1578 39.8649 22.2973C39.8649 23.4368 39.4122 24.5297 38.6064 25.3355C37.8006 26.1413 36.7078 26.5939 35.5682 26.5939V26.5939ZM14.4318 19.352C13.6506 19.352 12.9015 19.6623 12.3491 20.2147C11.7968 20.767 11.4865 21.5162 11.4865 22.2973C11.4865 23.0784 11.7968 23.8276 12.3491 24.3799C12.9015 24.9323 13.6506 25.2426 14.4318 25.2426H35.5682C36.3494 25.2426 37.0985 24.9323 37.6509 24.3799C38.2032 23.8276 38.5135 23.0784 38.5135 22.2973C38.5135 21.5162 38.2032 20.767 37.6509 20.2147C37.0985 19.6623 36.3494 19.352 35.5682 19.352H14.4318Z" fill="white"/>
<path d="M35.5682 26.5939C34.7185 26.5939 33.8877 26.3419 33.1812 25.8698C32.4746 25.3977 31.9239 24.7266 31.5987 23.9415C31.2735 23.1564 31.1884 22.2925 31.3542 21.4591C31.52 20.6256 31.9292 19.86 32.5301 19.2591C33.131 18.6582 33.8966 18.249 34.73 18.0832C35.5635 17.9174 36.4274 18.0025 37.2125 18.3277C37.9976 18.6529 38.6686 19.2036 39.1407 19.9102C39.6129 20.6168 39.8649 21.4475 39.8649 22.2973C39.8634 23.4364 39.4103 24.5284 38.6048 25.3339C37.7994 26.1393 36.7073 26.5925 35.5682 26.5939V26.5939ZM35.5682 19.352C34.9857 19.352 34.4163 19.5248 33.9319 19.8484C33.4476 20.172 33.0701 20.632 32.8472 21.1702C32.6242 21.7084 32.5659 22.3006 32.6796 22.8719C32.7932 23.4432 33.0737 23.968 33.4856 24.3799C33.8975 24.7918 34.4223 25.0723 34.9936 25.186C35.565 25.2996 36.1572 25.2413 36.6953 25.0184C37.2335 24.7954 37.6935 24.4179 38.0171 23.9336C38.3408 23.4492 38.5135 22.8798 38.5135 22.2973C38.5126 21.5164 38.202 20.7678 37.6499 20.2157C37.0977 19.6635 36.3491 19.3529 35.5682 19.352V19.352Z" fill="white"/>
<path d="M14.4318 26.5939C13.582 26.5938 12.7514 26.3417 12.0449 25.8695C11.3384 25.3973 10.7878 24.7262 10.4627 23.9411C10.1376 23.156 10.0526 22.2921 10.2185 21.4587C10.3843 20.6252 10.7936 19.8597 11.3945 19.2589C11.9954 18.6581 12.761 18.2489 13.5945 18.0832C14.4279 17.9175 15.2918 18.0026 16.0768 18.3278C16.8619 18.653 17.5329 19.2037 18.005 19.9103C18.4771 20.6169 18.7291 21.4475 18.7291 22.2973C18.7276 23.4365 18.2744 24.5287 17.4688 25.3341C16.6632 26.1396 15.571 26.5927 14.4318 26.5939V26.5939ZM14.4318 19.352C13.8493 19.3522 13.2799 19.525 12.7956 19.8487C12.3114 20.1724 11.934 20.6325 11.7112 21.1707C11.4883 21.7089 11.4301 22.301 11.5438 22.8723C11.6576 23.4436 11.9381 23.9683 12.35 24.3802C12.762 24.792 13.2868 25.0724 13.8581 25.186C14.4294 25.2996 15.0216 25.2413 15.5597 25.0183C16.0978 24.7954 16.5578 24.4179 16.8814 23.9335C17.205 23.4492 17.3777 22.8798 17.3777 22.2973C17.3768 21.5163 17.0661 20.7676 16.5138 20.2154C15.9615 19.6633 15.2127 19.3527 14.4318 19.352V19.352Z" fill="white"/>
<path d="M41.6946 30.7993H8.30541C7.79032 30.799 7.29642 30.5942 6.9322 30.23C6.56797 29.8658 6.3632 29.3719 6.36284 28.8568V15.7378C6.3632 15.2227 6.56797 14.7289 6.9322 14.3646C7.29642 14.0004 7.79032 13.7956 8.30541 13.7953H41.6946C42.2097 13.7956 42.7036 14.0004 43.0678 14.3646C43.432 14.7289 43.6368 15.2227 43.6372 15.7378V28.8568C43.6368 29.3719 43.432 29.8658 43.0678 30.23C42.7036 30.5942 42.2097 30.799 41.6946 30.7993V30.7993ZM8.30541 15.1466C8.14861 15.1466 7.99823 15.2089 7.88735 15.3198C7.77648 15.4307 7.71419 15.581 7.71419 15.7378V28.8568C7.71419 29.0136 7.77648 29.1639 7.88735 29.2748C7.99823 29.3857 8.14861 29.448 8.30541 29.448H41.6946C41.8514 29.448 42.0018 29.3857 42.1126 29.2748C42.2235 29.1639 42.2858 29.0136 42.2858 28.8568V15.7378C42.2858 15.581 42.2235 15.4307 42.1126 15.3198C42.0018 15.2089 41.8514 15.1466 41.6946 15.1466H8.30541Z" fill="white"/>
</svg>
