<svg width="50" height="50" viewBox="0 0 50 50" fill="none" xmlns="http://www.w3.org/2000/svg">
<path d="M45.8086 7.75862H4.19144C3.78121 7.75862 3.44827 8.09082 3.44827 8.50178V41.201C3.44827 41.6119 3.78121 41.9441 4.19144 41.9441H45.8086C46.2188 41.9441 46.5517 41.6119 46.5517 41.201V8.50178C46.5517 8.09082 46.2188 7.75862 45.8086 7.75862ZM45.0654 40.4578H4.9346V9.24495H45.0654V40.4578Z" fill="white"/>
<path d="M15.3389 24.2108C17.6211 24.2108 19.4776 22.3543 19.4776 20.0728C19.4776 17.7898 17.6211 15.9334 15.3389 15.9334C13.0566 15.9334 11.2002 17.7898 11.2002 20.0721C11.2002 22.3543 13.0566 24.2108 15.3389 24.2108ZM15.3389 17.4197C16.8014 17.4197 17.9912 18.6103 17.9912 20.0721C17.9912 21.5339 16.8014 22.7244 15.3389 22.7244C13.8763 22.7244 12.6865 21.5346 12.6865 20.0728C12.6865 18.611 13.8763 17.4197 15.3389 17.4197Z" fill="white"/>
<path d="M8.65041 37.4851C8.82431 37.4851 8.9997 37.4242 9.1409 37.3001L21.2641 26.6268L28.9202 34.2821C29.2108 34.5727 29.6804 34.5727 29.971 34.2821C30.2616 33.9915 30.2616 33.5218 29.971 33.2313L26.3986 29.6589L33.2216 22.1871L41.5904 29.8588C41.8928 30.136 42.3633 30.1152 42.6405 29.8127C42.9177 29.5103 42.8976 29.0398 42.5944 28.7626L33.6764 20.5878C33.5308 20.4548 33.3368 20.3887 33.1413 20.3931C32.9444 20.4021 32.7586 20.489 32.6256 20.6347L25.347 28.6066L21.8222 25.0817C21.5443 24.8045 21.0999 24.7904 20.8056 25.049L8.15918 36.1839C7.85077 36.4551 7.82104 36.9248 8.09229 37.2332C8.23944 37.4004 8.44455 37.4851 8.65041 37.4851Z" fill="white"/>
</svg>
