<svg width="121" height="50" viewBox="0 0 121 50" fill="none" xmlns="http://www.w3.org/2000/svg">
<g clip-path="url(#clip0)">
<path d="M3.78241 37.25L25 0.5L46.2176 37.25H3.78241Z" stroke="#FA255E"/>
<path d="M54.788 28.358H58.352L58.856 30.5H63.41L59.918 17H53.24L49.748 30.5H54.302L54.788 28.358ZM56.696 21.14L57.56 24.92H55.58L56.462 21.14H56.696ZM73.858 17H63.274V20.456H66.406V30.5H70.726V20.456H73.858V17ZM78.747 28.358H82.311L82.815 30.5H87.369L83.877 17H77.199L73.707 30.5H78.261L78.747 28.358ZM80.655 21.14L81.519 24.92H79.539L80.421 21.14H80.655ZM97.637 26L99.977 30.5H95.225L93.461 26.486H92.525V30.5H88.205V17H95.009C98.105 17 99.653 18.578 99.653 21.734C99.653 23.894 98.981 25.316 97.637 26ZM93.515 20.456H92.525V23.156H93.515C94.043 23.156 94.421 23.102 94.649 22.994C94.889 22.886 95.009 22.64 95.009 22.256V21.356C95.009 20.972 94.889 20.726 94.649 20.618C94.421 20.51 94.043 20.456 93.515 20.456ZM105.814 30.5V17H101.494V30.5H105.814ZM111.688 28.358H115.252L115.756 30.5H120.31L116.818 17H110.14L106.648 30.5H111.202L111.688 28.358ZM113.596 21.14L114.46 24.92H112.48L113.362 21.14H113.596Z" fill="#FA255E"/>
<path d="M30.192 17H19.608V20.456H22.74V30.5H27.06V20.456H30.192V17Z" fill="#FA255E"/>
</g>
<defs>
<clipPath id="clip0">
<rect width="120.5" height="50" fill="white"/>
</clipPath>
</defs>
</svg>
